{"title":"Fatal Call 2012 DVDRip XviD-iND","uid":8743682,"size":849946605,"categoryP":"video","categoryS":"movies","magnet":"?xt=urn:btih:41b3e944a2c11988de213d97dbce5b788b4c97d1&amp;dn=Fatal+Call+2012+DVDRip+XviD-iND&amp;tr=udp%3A%2F%2Ftracker.openbittorrent.com%3A80&amp;tr=udp%3A%2F%2Fopen.demonii.com%3A1337&amp;tr=udp%3A%2F%2Ftracker.coppersurfer.tk%3A6969&amp;tr=udp%3A%2F%2Fexodus.desync.com%3A6969","seeders":1,"leechers":1,"uploader":"ValidusVyto","files":-1,"time":1374861305,"description":"_______ Visit us at our Semi Public Bittorrent Community ________\n     &lt;a href=&quot;\nhttp://p2pdl.com&quot; rel=&quot;nofollow&quot; target=&quot;_NEW&quot;&gt;\nhttp://p2pdl.com&lt;/a&gt;  _____________________________ &lt;a href=&quot; http://p2pdl.com&quot; rel=&quot;nofollow&quot; target=&quot;_NEW&quot;&gt; http://p2pdl.com&lt;/a&gt;\n\n\nFatal.Call.2012.DVDRip.XviD-iND\n\n\nSource: DVDR HK INC\nGenre.: Thriller\nIMDb..:  &lt;a href=&quot;\nhttp://www.imdb.com/title/tt2059193/&quot; rel=&quot;nofollow&quot; target=&quot;_NEW&quot;&gt;\nhttp://www.imdb.com/title/tt2059193/&lt;/a&gt;\n\nPlot..:\nMitch Harwell is not having a very good day. His car gets run off the road\nbeing chased by some street punks and pursued by a very determined killer.\nMitch has very few options for escape. Flash back to three weeks ago, and\nwe find how he got into this mess, and what he needs to survive.\n\n\nGeneral\nComplete name                            : Fatal Call 2012 DVDRip XviD-iND.mkv\nFormat                                   : Matroska\nFormat version                           : Version 2\nFile size                                : 801 MiB\nDuration                                 : 1h 33mn\nOverall bit rate                         : 1 193 Kbps\nEncoded date                             : UTC 2013-07-22 23:53:53\nWriting application                      : mkvmerge v6.2.0 ('Promised Land')\nWriting library                          : libebml v1.3.0 + libmatroska v1.4.0\n\nVideo\nID                                       : 1\nFormat                                   : AVC\nFormat/Info                              : Advanced Video Codec\nFormat profile                           : &lt;a class=&quot;__cf_email__&quot; href=&quot;/cdn-cgi/l/email-protection&quot; data-cfemail=&quot;f1b9989699b1bdc2dfc1&quot;&gt;[email&amp;#160;protected]&lt;/a&gt;&lt;script cf-hash='f9e31' type=&quot;text/javascript&quot;&gt;\n/* &lt;![CDATA[ */!function(){try{var t=&quot;currentScript&quot;in document?document.currentScript:function(){for(var t=document.getElementsByTagName(&quot;script&quot;),e=t.length;e--;)if(t[e].getAttribute(&quot;cf-hash&quot;))return t[e]}();if(t&amp;&amp;t.previousSibling){var e,r,n,i,c=t.previousSibling,a=c.getAttribute(&quot;data-cfemail&quot;);if(a){for(e=&quot;&quot;,r=parseInt(a.substr(0,2),16),n=2;a.length-n;n+=2)i=parseInt(a.substr(n,2),16)^r,e+=String.fromCharCode(i);e=document.createTextNode(e),c.parentNode.replaceChild(e,c)}}}catch(u){}}();/* ]]&gt; */&lt;/script&gt;\nFormat settings, CABAC                   : Yes\nFormat settings, ReFrames                : 4 frames\nCodec ID                                 : V_MPEG4/ISO/AVC\nDuration                                 : 1h 33mn\nBit rate                                 : 1 000 Kbps\nWidth                                    : 704 pixels\nHeight                                   : 400 pixels\nDisplay aspect ratio                     : 16:9\nFrame rate                               : 23.976 fps\nColor space                              : YUV\nChroma subsampling                       : 4:2:0\nBit depth                                : 8 bits\nScan type                                : Progressive\nBits/(Pixel*Frame)                       : 0.148\nStream size                              : 656 MiB (82%)\nWriting library                          : x264 core 133 r2334 a3ac64b\nLanguage                                 : English\nDefault                                  : Yes\nForced                                   : No\n\nAudio\nID                                       : 2\nFormat                                   : AC-3\nFormat/Info                              : Audio Coding 3\nMode extension                           : CM (complete main)\nFormat settings, Endianness              : Big\nCodec ID                                 : A_AC3\nDuration                                 : 1h 33mn\nBit rate mode                            : Constant\nBit rate                                 : 192 Kbps\nChannel(s)                               : 2 channels\nChannel positions                        : Front: L R\nSampling rate                            : 48.0 KHz\nBit depth                                : 16 bits\nCompression mode                         : Lossy\nDelay relative to video                  : 380ms\nStream size                              : 129 MiB (16%)\nDefault                                  : Yes\nForced                                   : No\n &lt;a href=&quot;\nhttp://ultraimg.com/images/hmHL.png&quot; rel=&quot;nofollow&quot; target=&quot;_NEW&quot;&gt;\nhttp://ultraimg.com/images/hmHL.png&lt;/a&gt; &lt;a href=&quot;\nhttp://ultraimg.com/images/zFasB.png&quot; rel=&quot;nofollow&quot; target=&quot;_NEW&quot;&gt;\nhttp://ultraimg.com/images/zFasB.png&lt;/a&gt; &lt;a href=&quot;\nhttp://ultraimg.com/images/OT9ij.png&quot; rel=&quot;nofollow&quot; target=&quot;_NEW&quot;&gt;\nhttp://ultraimg.com/images/OT9ij.png&lt;/a&gt; &lt;a href=&quot;\nhttp://ultraimg.com/images/BtjU8.png&quot; rel=&quot;nofollow&quot; target=&quot;_NEW&quot;&gt;\nhttp://ultraimg.com/images/BtjU8.png&lt;/a&gt;\n","torrent":{"xt":"urn:btih:41b3e944a2c11988de213d97dbce5b788b4c97d1","amp;dn":"Fatal+Call+2012+DVDRip+XviD-iND","amp;tr":["udp%3A%2F%2Ftracker.openbittorrent.com%3A80","udp%3A%2F%2Fopen.demonii.com%3A1337","udp%3A%2F%2Ftracker.coppersurfer.tk%3A6969","udp%3A%2F%2Fexodus.desync.com%3A6969"],"infoHash":"41b3e944a2c11988de213d97dbce5b788b4c97d1","infoHashBuffer":{"type":"Buffer","data":[65,179,233,68,162,193,25,136,222,33,61,151,219,206,91,120,139,76,151,209]},"announce":[],"urlList":[]}}